<svg width="179" height="179" viewBox="0 0 179 179" fill="none" xmlns="http://www.w3.org/2000/svg">
<rect width="179" height="179" rx="8" fill="#FCEBEC"/>
<g clip-path="url(#clip0_1551_26023)">
<path d="M89.0036 42.2705C62.9179 42.2705 41.7744 63.414 41.7744 89.5C41.7744 108.295 52.782 124.476 68.6756 132.078L70.1538 103.514C70.1538 103.514 67.3733 102.601 66.7646 102.304C60.8669 99.706 56.5825 92.0567 56.5825 82.1291C56.5825 71.2959 64.9839 61.9649 73.1065 61.8878C73.1168 61.8878 73.1168 61.8878 73.1236 61.8878C73.1271 61.8878 73.1339 61.8878 73.1371 61.8878C81.2614 61.9646 89.6632 71.2956 89.6632 82.1291C89.6632 92.0567 85.3735 99.7027 79.4878 102.304C79.4416 102.324 76.0715 103.548 76.0715 103.548L77.7225 135.308C81.3453 136.199 85.1119 136.723 89.0101 136.723C94.2671 136.723 99.3016 135.827 104.025 134.245L105.488 105.94C101.633 105.093 98.3447 102.638 96.2837 99.5592C93.7305 95.7345 98.2491 61.8846 98.2491 61.8846H101.188V93.6494H104.108V61.8881H107.3V93.6565H110.205V61.8881H113.518V93.6565H116.433V61.8881H118.689C118.689 61.8881 123.207 95.7381 120.651 99.5627C118.61 102.612 115.353 105.059 111.545 105.927C111.477 105.951 111.415 105.975 111.415 105.975L112.687 130.321C126.755 122.142 136.237 106.946 136.237 89.5003C136.23 63.4143 115.086 42.2705 89.0036 42.2705Z" fill="#E23744"/>
<path d="M63.4952 77.3267C63.6643 76.638 63.8917 75.9834 63.902 75.9717C63.9756 75.7137 63.8388 75.4504 63.5584 75.283C63.2919 75.1394 62.9671 75.213 62.8168 75.4436C62.8168 75.4436 62.4938 75.9581 62.0255 76.7186C61.6445 77.3731 61.0806 78.4189 60.6958 79.7213C60.3625 80.8627 59.9644 82.3804 59.785 84.0789C59.7082 84.9712 59.6909 85.7761 59.7182 86.6048C59.785 87.5497 59.9283 88.3581 60.2018 89.2827C61.1297 91.9197 61.8442 94.4732 64.423 96.9919C65.2382 97.8294 66.0757 98.4002 66.6805 98.8205L66.8941 98.9709C67.0241 99.0565 67.1489 99.1353 67.2718 99.2071C67.7796 99.4736 68.1194 99.5692 68.1811 99.5827C68.4338 99.651 68.6939 99.528 68.8013 99.323C68.9022 99.1076 68.8286 98.8376 68.6186 98.667C68.6186 98.667 68.3244 98.4107 67.947 97.9321C67.689 97.6415 67.4086 97.2211 67.0824 96.7463C66.8518 96.4112 66.5799 96.0317 66.3269 95.6625C65.0708 93.7451 64.3465 91.0689 63.3449 88.3275C63.1483 87.7326 62.9877 86.9619 62.9277 86.3073C62.8477 85.5519 62.81 84.8241 62.81 84.149C62.7809 82.5801 62.8509 81.2334 62.9877 80.1414C63.1448 78.9093 63.2678 77.9847 63.4952 77.3267Z" fill="#E23744"/>
<path d="M89.0034 33.5C58.1273 33.5 33 58.622 33 89.4999C33 120.371 58.1273 145.5 89.0034 145.5C119.878 145.5 145 120.371 145 89.4999C145 58.622 119.878 33.5 89.0034 33.5ZM89.0034 141.323C60.4257 141.323 37.175 118.074 37.175 89.4999C37.175 60.9222 60.4257 37.6715 89.0034 37.6715C117.578 37.6715 140.83 60.9222 140.83 89.4999C140.83 118.074 117.578 141.323 89.0034 141.323Z" fill="#E23744"/>
</g>
<defs>
<clipPath id="clip0_1551_26023">
<rect width="112" height="112" fill="white" transform="translate(33 33.5)"/>
</clipPath>
</defs>
</svg>
