<svg width="179" height="179" viewBox="0 0 179 179" fill="none" xmlns="http://www.w3.org/2000/svg">
<rect width="179" height="179" rx="8" fill="#FCEBEC"/>
<g clip-path="url(#clip0_1632_16151)">
<path d="M151.055 116.427H93.2146C92.181 116.427 91.3394 115.586 91.3394 114.552V30.3024C91.3394 29.2688 92.181 28.4272 93.2146 28.4272H151.055C152.088 28.4272 152.93 29.2688 152.93 30.3024V114.549C152.93 115.586 152.088 116.427 151.055 116.427ZM93.2146 28.5072C92.2258 28.5072 91.4194 29.3136 91.4194 30.3024V114.549C91.4194 115.538 92.2258 116.344 93.2146 116.344H151.055C152.043 116.344 152.85 115.538 152.85 114.549V30.3024C152.85 29.3136 152.043 28.5072 151.055 28.5072H93.2146Z" fill="#FEFEFE"/>
<path d="M84.357 116.427H26.5202C25.4866 116.427 24.645 115.586 24.645 114.552V30.3024C24.645 29.2688 25.4866 28.4272 26.5202 28.4272H84.3602C85.3938 28.4272 86.2354 29.2688 86.2354 30.3024V114.549C86.2322 115.586 85.3938 116.427 84.357 116.427ZM26.5202 28.5072C25.5314 28.5072 24.725 29.3136 24.725 30.3024V114.549C24.725 115.538 25.5314 116.344 26.5202 116.344H84.3602C85.349 116.344 86.1554 115.538 86.1554 114.549V30.3024C86.1554 29.3136 85.349 28.5072 84.3602 28.5072H26.5202Z" fill="#FEFEFE"/>
<path d="M169 135.966H9V136.046H169V135.966Z" fill="#FEFEFE"/>
<path d="M30.6734 140.533H25.5342V140.613H30.6734V140.533Z" fill="#FEFEFE"/>
<path d="M80.6418 139.666H63.5122V139.746H80.6418V139.666Z" fill="#FEFEFE"/>
<path d="M42.5937 143.506H30.9937V143.586H42.5937V143.506Z" fill="#FEFEFE"/>
<path d="M143.893 139.624H130.072V139.704H143.893V139.624Z" fill="#FEFEFE"/>
<path d="M148.769 139.624H146.744V139.704H148.769V139.624Z" fill="#FEFEFE"/>
<path d="M127.432 141.618H110.187V141.698H127.432V141.618Z" fill="#FEFEFE"/>
<path d="M26.0174 92.3088V76.9552H35.5246V80.4592H41.8606V42.104H54.043V57.2016H57.7006V49.6624H67.2046V86.424H80.6094V73.4352H89.0158V45.2752H99.387V64.0496H109.137V104.494H116.693V84.7984H124.491V72.1264H132.776V62.3952L142.021 67.272V93.304H151.771V87.9344H164.795V136.28L13.2046 136.354V92.3088H26.0174Z" fill="#FEFEFE"/>
<path d="M97.0158 48.6001H93.979V52.0785H97.0158V48.6001Z" fill="#EAEAEA"/>
<path d="M97.0158 54.4302H93.979V57.9086H97.0158V54.4302Z" fill="#EAEAEA"/>
<path d="M97.0158 60.2671H93.979V63.7455H97.0158V60.2671Z" fill="#EAEAEA"/>
<path d="M97.0158 66.0977H93.979V69.5761H97.0158V66.0977Z" fill="#EAEAEA"/>
<path d="M97.0158 71.9312H93.979V75.4096H97.0158V71.9312Z" fill="#EAEAEA"/>
<path d="M97.0158 77.7646H93.979V81.243H97.0158V77.7646Z" fill="#EAEAEA"/>
<path d="M97.0158 83.5986H93.979V87.077H97.0158V83.5986Z" fill="#EAEAEA"/>
<path d="M97.0158 89.4321H93.979V92.9105H97.0158V89.4321Z" fill="#EAEAEA"/>
<path d="M51.4221 43.9409H48.3853V47.4193H51.4221V43.9409Z" fill="#EAEAEA"/>
<path d="M51.4221 49.7744H48.3853V53.2528H51.4221V49.7744Z" fill="#EAEAEA"/>
<path d="M51.4221 55.6079H48.3853V59.0863H51.4221V55.6079Z" fill="#EAEAEA"/>
<path d="M51.4221 61.4414H48.3853V64.9198H51.4221V61.4414Z" fill="#EAEAEA"/>
<path d="M51.4221 67.2754H48.3853V70.7538H51.4221V67.2754Z" fill="#EAEAEA"/>
<path d="M51.4221 73.1089H48.3853V76.5873H51.4221V73.1089Z" fill="#EAEAEA"/>
<path d="M51.4221 78.9458H48.3853V82.4242H51.4221V78.9458Z" fill="#EAEAEA"/>
<path d="M51.4221 84.7759H48.3853V88.2543H51.4221V84.7759Z" fill="#EAEAEA"/>
<path d="M107.39 136.309V80.3696H119.467V136.302L107.39 136.309Z" fill="#FEFEFE"/>
<path d="M118.545 82.1455H117.083V85.1663H118.545V82.1455Z" fill="#EAEAEA"/>
<path d="M115.621 82.1455H114.158V85.1663H115.621V82.1455Z" fill="#EAEAEA"/>
<path d="M112.693 82.1455H111.23V85.1663H112.693V82.1455Z" fill="#EAEAEA"/>
<path d="M109.765 82.1455H108.302V85.1663H109.765V82.1455Z" fill="#EAEAEA"/>
<path d="M118.545 87.2114H117.083V90.2322H118.545V87.2114Z" fill="#EAEAEA"/>
<path d="M115.621 87.2114H114.158V90.2322H115.621V87.2114Z" fill="#EAEAEA"/>
<path d="M112.693 87.2114H111.23V90.2322H112.693V87.2114Z" fill="#EAEAEA"/>
<path d="M109.765 87.2114H108.302V90.2322H109.765V87.2114Z" fill="#EAEAEA"/>
<path d="M118.545 92.2705H117.083V95.2913H118.545V92.2705Z" fill="#EAEAEA"/>
<path d="M115.621 92.2705H114.158V95.2913H115.621V92.2705Z" fill="#EAEAEA"/>
<path d="M112.693 92.2705H111.23V95.2913H112.693V92.2705Z" fill="#EAEAEA"/>
<path d="M109.765 92.2705H108.302V95.2913H109.765V92.2705Z" fill="#EAEAEA"/>
<path d="M118.545 97.333H117.083V100.354H118.545V97.333Z" fill="#EAEAEA"/>
<path d="M115.621 97.333H114.158V100.354H115.621V97.333Z" fill="#EAEAEA"/>
<path d="M112.693 97.333H111.23V100.354H112.693V97.333Z" fill="#EAEAEA"/>
<path d="M109.765 97.333H108.302V100.354H109.765V97.333Z" fill="#EAEAEA"/>
<path d="M118.545 102.395H117.083V105.416H118.545V102.395Z" fill="#EAEAEA"/>
<path d="M115.621 102.395H114.158V105.416H115.621V102.395Z" fill="#EAEAEA"/>
<path d="M112.693 102.395H111.23V105.416H112.693V102.395Z" fill="#EAEAEA"/>
<path d="M109.765 102.395H108.302V105.416H109.765V102.395Z" fill="#EAEAEA"/>
<path d="M118.545 107.455H117.083V110.475H118.545V107.455Z" fill="#EAEAEA"/>
<path d="M115.621 107.455H114.158V110.475H115.621V107.455Z" fill="#EAEAEA"/>
<path d="M112.693 107.455H111.23V110.475H112.693V107.455Z" fill="#EAEAEA"/>
<path d="M109.765 107.455H108.302V110.475H109.765V107.455Z" fill="#EAEAEA"/>
<path d="M118.545 112.517H117.083V115.537H118.545V112.517Z" fill="#EAEAEA"/>
<path d="M115.621 112.517H114.158V115.537H115.621V112.517Z" fill="#EAEAEA"/>
<path d="M112.693 112.517H111.23V115.537H112.693V112.517Z" fill="#EAEAEA"/>
<path d="M109.765 112.517H108.302V115.537H109.765V112.517Z" fill="#EAEAEA"/>
<path d="M118.545 117.583H117.083V120.603H118.545V117.583Z" fill="#EAEAEA"/>
<path d="M115.621 117.583H114.158V120.603H115.621V117.583Z" fill="#EAEAEA"/>
<path d="M112.693 117.583H111.23V120.603H112.693V117.583Z" fill="#EAEAEA"/>
<path d="M109.765 117.583H108.302V120.603H109.765V117.583Z" fill="#EAEAEA"/>
<path d="M65.4253 136.328V73.9121H90.4621V136.344C90.4621 136.347 65.6173 136.354 65.4253 136.328Z" fill="#FEFEFE"/>
<path d="M88.5837 75.9795H85.5469V79.4579H88.5837V75.9795Z" fill="#FEFEFE"/>
<path d="M82.5099 75.9795H79.4731V79.4579H82.5099V75.9795Z" fill="#FEFEFE"/>
<path d="M76.4396 75.9795H73.4028V79.4579H76.4396V75.9795Z" fill="#FEFEFE"/>
<path d="M70.3659 75.9795H67.3291V79.4579H70.3659V75.9795Z" fill="#FEFEFE"/>
<path d="M88.5837 81.813H85.5469V85.2914H88.5837V81.813Z" fill="#FEFEFE"/>
<path d="M82.5099 81.813H79.4731V85.2914H82.5099V81.813Z" fill="#FEFEFE"/>
<path d="M76.4396 81.813H73.4028V85.2914H76.4396V81.813Z" fill="#FEFEFE"/>
<path d="M70.3659 81.813H67.3291V85.2914H70.3659V81.813Z" fill="#FEFEFE"/>
<path d="M88.5837 87.6465H85.5469V91.1249H88.5837V87.6465Z" fill="#FEFEFE"/>
<path d="M82.5099 87.6465H79.4731V91.1249H82.5099V87.6465Z" fill="#FEFEFE"/>
<path d="M76.4396 87.6465H73.4028V91.1249H76.4396V87.6465Z" fill="#FEFEFE"/>
<path d="M70.3659 87.6465H67.3291V91.1249H70.3659V87.6465Z" fill="#FEFEFE"/>
<path d="M88.5837 93.4771H85.5469V96.9554H88.5837V93.4771Z" fill="#FEFEFE"/>
<path d="M82.5099 93.4771H79.4731V96.9554H82.5099V93.4771Z" fill="#FEFEFE"/>
<path d="M76.4396 93.4771H73.4028V96.9554H76.4396V93.4771Z" fill="#FEFEFE"/>
<path d="M70.3659 93.4771H67.3291V96.9554H70.3659V93.4771Z" fill="#FEFEFE"/>
<path d="M88.5837 99.3135H85.5469V102.792H88.5837V99.3135Z" fill="#FEFEFE"/>
<path d="M82.5099 99.3135H79.4731V102.792H82.5099V99.3135Z" fill="#FEFEFE"/>
<path d="M76.4396 99.3135H73.4028V102.792H76.4396V99.3135Z" fill="#FEFEFE"/>
<path d="M70.3659 99.3135H67.3291V102.792H70.3659V99.3135Z" fill="#FEFEFE"/>
<path d="M88.5837 105.144H85.5469V108.622H88.5837V105.144Z" fill="#FEFEFE"/>
<path d="M82.5099 105.144H79.4731V108.622H82.5099V105.144Z" fill="#FEFEFE"/>
<path d="M76.4396 105.144H73.4028V108.622H76.4396V105.144Z" fill="#FEFEFE"/>
<path d="M70.3659 105.144H67.3291V108.622H70.3659V105.144Z" fill="#FEFEFE"/>
<path d="M88.5837 110.981H85.5469V114.459H88.5837V110.981Z" fill="#FEFEFE"/>
<path d="M82.5099 110.981H79.4731V114.459H82.5099V110.981Z" fill="#FEFEFE"/>
<path d="M76.4396 110.981H73.4028V114.459H76.4396V110.981Z" fill="#FEFEFE"/>
<path d="M70.3659 110.981H67.3291V114.459H70.3659V110.981Z" fill="#FEFEFE"/>
<path d="M88.5837 116.812H85.5469V120.29H88.5837V116.812Z" fill="#FEFEFE"/>
<path d="M82.5099 116.812H79.4731V120.29H82.5099V116.812Z" fill="#FEFEFE"/>
<path d="M76.4396 116.812H73.4028V120.29H76.4396V116.812Z" fill="#FEFEFE"/>
<path d="M70.3659 116.812H67.3291V120.29H70.3659V116.812Z" fill="#FEFEFE"/>
<path d="M123.854 136.302V69.5503H134.213V136.357C130.936 136.273 123.854 136.302 123.854 136.302Z" fill="#FEFEFE"/>
<path d="M132.683 70.7856H129.646V74.264H132.683V70.7856Z" fill="#EAEAEA"/>
<path d="M132.683 76.6157H129.646V80.0941H132.683V76.6157Z" fill="#EAEAEA"/>
<path d="M132.683 82.4526H129.646V85.931H132.683V82.4526Z" fill="#EAEAEA"/>
<path d="M132.683 88.2861H129.646V91.7645H132.683V88.2861Z" fill="#EAEAEA"/>
<path d="M132.683 94.1167H129.646V97.5951H132.683V94.1167Z" fill="#EAEAEA"/>
<path d="M132.683 99.9536H129.646V103.432H132.683V99.9536Z" fill="#EAEAEA"/>
<path d="M132.683 105.784H129.646V109.262H132.683V105.784Z" fill="#EAEAEA"/>
<path d="M132.683 111.621H129.646V115.099H132.683V111.621Z" fill="#EAEAEA"/>
<path d="M128.622 70.7856H125.585V74.264H128.622V70.7856Z" fill="#EAEAEA"/>
<path d="M128.622 76.6157H125.585V80.0941H128.622V76.6157Z" fill="#EAEAEA"/>
<path d="M128.622 82.4526H125.585V85.931H128.622V82.4526Z" fill="#EAEAEA"/>
<path d="M128.622 88.2861H125.585V91.7645H128.622V88.2861Z" fill="#EAEAEA"/>
<path d="M128.622 94.1167H125.585V97.5951H128.622V94.1167Z" fill="#EAEAEA"/>
<path d="M128.622 99.9536H125.585V103.432H128.622V99.9536Z" fill="#EAEAEA"/>
<path d="M128.622 105.784H125.585V109.262H128.622V105.784Z" fill="#EAEAEA"/>
<path d="M128.622 111.621H125.585V115.099H128.622V111.621Z" fill="#EAEAEA"/>
<path d="M42.9295 70.7407H24.6479V136.357H42.9295V70.7407Z" fill="#FEFEFE"/>
<path d="M40.2225 73.4512H34.8657V76.9296H40.2225V73.4512Z" fill="#EAEAEA"/>
<path d="M40.2225 79.2881H34.8657V82.7665H40.2225V79.2881Z" fill="#EAEAEA"/>
<path d="M40.2225 85.1182H34.8657V88.5966H40.2225V85.1182Z" fill="#EAEAEA"/>
<path d="M40.2225 90.9551H34.8657V94.4335H40.2225V90.9551Z" fill="#EAEAEA"/>
<path d="M40.2225 96.7856H34.8657V100.264H40.2225V96.7856Z" fill="#EAEAEA"/>
<path d="M40.2225 102.619H34.8657V106.098H40.2225V102.619Z" fill="#EAEAEA"/>
<path d="M40.2225 108.453H34.8657V111.931H40.2225V108.453Z" fill="#EAEAEA"/>
<path d="M40.2225 114.286H34.8657V117.765H40.2225V114.286Z" fill="#EAEAEA"/>
<path d="M33.0546 73.4512H27.6978V76.9296H33.0546V73.4512Z" fill="#EAEAEA"/>
<path d="M33.0546 79.2881H27.6978V82.7665H33.0546V79.2881Z" fill="#EAEAEA"/>
<path d="M33.0546 85.1182H27.6978V88.5966H33.0546V85.1182Z" fill="#EAEAEA"/>
<path d="M33.0546 90.9551H27.6978V94.4335H33.0546V90.9551Z" fill="#EAEAEA"/>
<path d="M33.0546 96.7856H27.6978V100.264H33.0546V96.7856Z" fill="#EAEAEA"/>
<path d="M33.0546 102.619H27.6978V106.098H33.0546V102.619Z" fill="#EAEAEA"/>
<path d="M33.0546 108.453H27.6978V111.931H33.0546V108.453Z" fill="#EAEAEA"/>
<path d="M33.0546 114.286H27.6978V117.765H33.0546V114.286Z" fill="#EAEAEA"/>
<path d="M54.8877 136.334V87.6465H62.8621V136.331L54.8877 136.334Z" fill="#FEFEFE"/>
<path d="M62.254 89.1855H61.2876V91.7775H62.254V89.1855Z" fill="#EAEAEA"/>
<path d="M60.3214 89.1855H59.355V91.7775H60.3214V89.1855Z" fill="#EAEAEA"/>
<path d="M58.3917 89.1855H57.4253V91.7775H58.3917V89.1855Z" fill="#EAEAEA"/>
<path d="M56.4591 89.1855H55.4927V91.7775H56.4591V89.1855Z" fill="#EAEAEA"/>
<path d="M62.254 93.5347H61.2876V96.1267H62.254V93.5347Z" fill="#EAEAEA"/>
<path d="M60.3214 93.5347H59.355V96.1267H60.3214V93.5347Z" fill="#EAEAEA"/>
<path d="M58.3917 93.5347H57.4253V96.1267H58.3917V93.5347Z" fill="#EAEAEA"/>
<path d="M56.4591 93.5347H55.4927V96.1267H56.4591V93.5347Z" fill="#EAEAEA"/>
<path d="M62.254 97.8833H61.2876V100.475H62.254V97.8833Z" fill="#EAEAEA"/>
<path d="M60.3214 97.8833H59.355V100.475H60.3214V97.8833Z" fill="#EAEAEA"/>
<path d="M58.3917 97.8833H57.4253V100.475H58.3917V97.8833Z" fill="#EAEAEA"/>
<path d="M56.4591 97.8833H55.4927V100.475H56.4591V97.8833Z" fill="#EAEAEA"/>
<path d="M62.254 102.232H61.2876V104.824H62.254V102.232Z" fill="#EAEAEA"/>
<path d="M60.3214 102.232H59.355V104.824H60.3214V102.232Z" fill="#EAEAEA"/>
<path d="M58.3917 102.232H57.4253V104.824H58.3917V102.232Z" fill="#EAEAEA"/>
<path d="M56.4591 102.232H55.4927V104.824H56.4591V102.232Z" fill="#EAEAEA"/>
<path d="M62.254 106.584H61.2876V109.176H62.254V106.584Z" fill="#EAEAEA"/>
<path d="M60.3214 106.584H59.355V109.176H60.3214V106.584Z" fill="#EAEAEA"/>
<path d="M58.3917 106.584H57.4253V109.176H58.3917V106.584Z" fill="#EAEAEA"/>
<path d="M56.4591 106.584H55.4927V109.176H56.4591V106.584Z" fill="#EAEAEA"/>
<path d="M62.254 110.933H61.2876V113.525H62.254V110.933Z" fill="#EAEAEA"/>
<path d="M60.3214 110.933H59.355V113.525H60.3214V110.933Z" fill="#EAEAEA"/>
<path d="M58.3917 110.933H57.4253V113.525H58.3917V110.933Z" fill="#EAEAEA"/>
<path d="M56.4591 110.933H55.4927V113.525H56.4591V110.933Z" fill="#EAEAEA"/>
<path d="M62.254 115.282H61.2876V117.874H62.254V115.282Z" fill="#EAEAEA"/>
<path d="M60.3214 115.282H59.355V117.874H60.3214V115.282Z" fill="#EAEAEA"/>
<path d="M58.3917 115.282H57.4253V117.874H58.3917V115.282Z" fill="#EAEAEA"/>
<path d="M56.4591 115.282H55.4927V117.874H56.4591V115.282Z" fill="#EAEAEA"/>
<path d="M62.254 119.63H61.2876V122.222H62.254V119.63Z" fill="#EAEAEA"/>
<path d="M60.3214 119.63H59.355V122.222H60.3214V119.63Z" fill="#EAEAEA"/>
<path d="M58.3917 119.63H57.4253V122.222H58.3917V119.63Z" fill="#EAEAEA"/>
<path d="M56.4591 119.63H55.4927V122.222H56.4591V119.63Z" fill="#EAEAEA"/>
<path d="M133.288 136.354V94.8657H154.603V136.287L133.288 136.354Z" fill="#EAEAEA"/>
<path d="M152.994 96.1553H150.408V98.3313H152.994V96.1553Z" fill="#FEFEFE"/>
<path d="M147.822 96.1553H145.237V98.3313H147.822V96.1553Z" fill="#FEFEFE"/>
<path d="M142.657 96.1553H140.072V98.3313H142.657V96.1553Z" fill="#FEFEFE"/>
<path d="M137.489 96.1553H134.904V98.3313H137.489V96.1553Z" fill="#FEFEFE"/>
<path d="M152.994 99.8032H150.408V101.979H152.994V99.8032Z" fill="#FEFEFE"/>
<path d="M147.822 99.8032H145.237V101.979H147.822V99.8032Z" fill="#FEFEFE"/>
<path d="M142.657 99.8032H140.072V101.979H142.657V99.8032Z" fill="#FEFEFE"/>
<path d="M137.489 99.8032H134.904V101.979H137.489V99.8032Z" fill="#FEFEFE"/>
<path d="M152.994 103.451H150.408V105.627H152.994V103.451Z" fill="#FEFEFE"/>
<path d="M147.822 103.451H145.237V105.627H147.822V103.451Z" fill="#FEFEFE"/>
<path d="M142.657 103.451H140.072V105.627H142.657V103.451Z" fill="#FEFEFE"/>
<path d="M137.489 103.451H134.904V105.627H137.489V103.451Z" fill="#FEFEFE"/>
<path d="M152.994 107.099H150.408V109.275H152.994V107.099Z" fill="#FEFEFE"/>
<path d="M147.822 107.099H145.237V109.275H147.822V107.099Z" fill="#FEFEFE"/>
<path d="M142.657 107.099H140.072V109.275H142.657V107.099Z" fill="#FEFEFE"/>
<path d="M137.489 107.099H134.904V109.275H137.489V107.099Z" fill="#FEFEFE"/>
<path d="M152.994 110.741H150.408V112.917H152.994V110.741Z" fill="#FEFEFE"/>
<path d="M147.822 110.741H145.237V112.917H147.822V110.741Z" fill="#FEFEFE"/>
<path d="M142.657 110.741H140.072V112.917H142.657V110.741Z" fill="#FEFEFE"/>
<path d="M137.489 110.741H134.904V112.917H137.489V110.741Z" fill="#FEFEFE"/>
<path d="M152.994 114.389H150.408V116.565H152.994V114.389Z" fill="#FEFEFE"/>
<path d="M147.822 114.389H145.237V116.565H147.822V114.389Z" fill="#FEFEFE"/>
<path d="M142.657 114.389H140.072V116.565H142.657V114.389Z" fill="#FEFEFE"/>
<path d="M137.489 114.389H134.904V116.565H137.489V114.389Z" fill="#FEFEFE"/>
<path d="M152.994 118.037H150.408V120.213H152.994V118.037Z" fill="#FEFEFE"/>
<path d="M147.822 118.037H145.237V120.213H147.822V118.037Z" fill="#FEFEFE"/>
<path d="M142.657 118.037H140.072V120.213H142.657V118.037Z" fill="#FEFEFE"/>
<path d="M137.489 118.037H134.904V120.213H137.489V118.037Z" fill="#FEFEFE"/>
<path d="M141.547 130.28C142.181 129.685 143.528 131.992 143.528 131.992C143.528 131.992 142.078 126.961 143.531 126.945C144.984 126.929 145.057 131.237 145.057 131.237C145.057 131.237 145.525 122.673 147.416 123.352C149.307 124.03 146.549 131.672 146.549 131.672C146.549 131.672 148.993 126.238 149.931 127.307C150.869 128.376 147.781 132.92 147.781 132.92C147.781 132.92 150.037 131.461 149.889 132.501C149.742 133.541 144.853 136.257 144.853 136.257C143.285 134.405 140.913 130.878 141.547 130.28Z" fill="#FEFEFE"/>
<path d="M144.84 136.308C144.84 136.308 145.608 132.648 146.049 130.155" stroke="#FEFEFE" stroke-width="0.5" stroke-miterlimit="10" stroke-linecap="round" stroke-linejoin="round"/>
<path d="M145.345 133.889L146.84 132.033" stroke="#FEFEFE" stroke-width="0.5" stroke-miterlimit="10" stroke-linecap="round" stroke-linejoin="round"/>
<path d="M19.8864 131.291C20.3504 130.552 22.2352 132.446 22.2352 132.446C22.2352 132.446 19.56 127.947 20.9616 127.563C22.3632 127.179 23.5248 131.33 23.5248 131.33C23.5248 131.33 21.8096 122.926 23.8096 123.102C25.8096 123.278 25.0736 131.371 25.0736 131.371C25.0736 131.371 26.0656 125.496 27.24 126.293C28.4176 127.09 26.5776 132.267 26.5776 132.267C26.5776 132.267 28.392 130.286 28.5136 131.33C28.6352 132.373 24.5904 136.238 24.5904 136.238C22.6096 134.843 19.4224 132.03 19.8864 131.291Z" fill="#FEFEFE"/>
<path d="M24.5937 136.293C24.5937 136.293 24.4113 132.558 24.2065 130.034" stroke="#FEFEFE" stroke-width="0.5" stroke-miterlimit="10" stroke-linecap="round" stroke-linejoin="round"/>
<path d="M24.4722 133.826L25.4482 131.65" stroke="#FEFEFE" stroke-width="0.5" stroke-miterlimit="10" stroke-linecap="round" stroke-linejoin="round"/>
<path d="M66.1932 30.1681C66.6764 29.8033 67.3836 29.7617 67.9084 30.0689C68.6028 28.6641 70.542 28.0433 71.9244 28.7825C72.286 27.2689 73.7772 26.1041 75.3356 26.1233C76.894 26.1425 78.3564 27.3425 78.6796 28.8657C78.7308 29.1089 78.766 29.3745 78.9388 29.5505C79.2204 29.8385 79.6908 29.7425 80.0908 29.7105C81.3516 29.6113 82.622 30.4977 82.9644 31.7137L65.598 31.6497C65.4476 31.0577 65.71 30.5329 66.1932 30.1681Z" fill="#FEFEFE"/>
<path d="M16.5775 53.3297C17.0607 52.9649 17.7679 52.9233 18.2927 53.2305C18.9871 51.8257 20.9263 51.2049 22.3087 51.9441C22.6703 50.4305 24.1615 49.2657 25.7199 49.2849C27.2783 49.3041 28.7407 50.5041 29.0639 52.0273C29.1151 52.2705 29.1503 52.5361 29.3231 52.7121C29.6047 53.0001 30.0751 52.9041 30.4751 52.8721C31.7359 52.7729 33.0063 53.6593 33.3487 54.8753L15.9823 54.8113C15.8319 54.2225 16.0943 53.6945 16.5775 53.3297Z" fill="#FEFEFE"/>
<path d="M30.8077 35.0896C31.2109 34.7824 31.8029 34.7504 32.2413 35.0064C32.8237 33.832 34.4397 33.3136 35.5949 33.9344C35.8957 32.6704 37.1437 31.6976 38.4429 31.7136C39.7421 31.7296 40.9645 32.7312 41.2365 34.0016C41.2781 34.2032 41.3069 34.424 41.4541 34.5712C41.6877 34.8112 42.0813 34.7312 42.4173 34.7056C43.4701 34.6224 44.5293 35.3616 44.8173 36.3792L30.3117 36.3248C30.1837 35.8352 30.4045 35.3968 30.8077 35.0896Z" fill="#FEFEFE"/>
<path d="M147.157 73.2976C147.56 72.9904 148.152 72.9584 148.59 73.2144C149.173 72.04 150.789 71.5216 151.944 72.1424C152.245 70.8784 153.493 69.9056 154.792 69.9216C156.091 69.9376 157.313 70.9392 157.585 72.2096C157.627 72.4112 157.656 72.632 157.8 72.7792C158.033 73.0192 158.427 72.9392 158.763 72.9136C159.816 72.8304 160.875 73.5696 161.163 74.5872L146.661 74.536C146.536 74.0432 146.753 73.6048 147.157 73.2976Z" fill="#FEFEFE"/>
<path d="M105.957 28.3791C106.36 28.0719 106.952 28.0399 107.39 28.2959C107.973 27.1215 109.589 26.6031 110.744 27.2239C111.045 25.9599 112.293 24.9871 113.592 25.0031C114.891 25.0191 116.113 26.0207 116.385 27.2911C116.427 27.4927 116.456 27.7135 116.603 27.8607C116.837 28.1007 117.23 28.0207 117.566 27.9951C118.619 27.9119 119.678 28.6511 119.966 29.6687L105.464 29.6175C105.333 29.1247 105.553 28.6863 105.957 28.3791Z" fill="#FEFEFE"/>
<path d="M147.87 46.7248C148.274 46.4176 148.866 46.3856 149.304 46.6416C149.886 45.4672 151.502 44.9488 152.658 45.5696C152.958 44.3056 154.206 43.3328 155.506 43.3488C156.805 43.3648 158.027 44.3664 158.299 45.6368C158.341 45.8384 158.37 46.0592 158.517 46.2064C158.75 46.4464 159.144 46.3664 159.48 46.3408C160.533 46.2576 161.592 46.9968 161.88 48.0144L147.378 47.9632C147.246 47.4704 147.464 47.032 147.87 46.7248Z" fill="#FEFEFE"/>
<path d="M72.0494 48.6733C72.3982 48.4077 72.9102 48.3789 73.2878 48.5997C73.7902 47.5853 75.1886 47.1373 76.1902 47.6717C76.4494 46.5773 77.5278 45.7357 78.6542 45.7517C79.7774 45.7645 80.8366 46.6317 81.0702 47.7325C81.1086 47.9085 81.131 48.0973 81.2558 48.2253C81.4574 48.4333 81.7966 48.3629 82.0878 48.3405C82.9998 48.2701 83.915 48.9101 84.1614 49.7869L71.6206 49.7421C71.5118 49.3197 71.7006 48.9389 72.0494 48.6733Z" fill="#FEFEFE"/>
<path d="M107.681 55.7008C108.174 55.3296 108.891 55.288 109.422 55.5984C110.129 54.1712 112.097 53.5408 113.499 54.2928C113.864 52.7536 115.381 51.5728 116.961 51.592C118.542 51.6112 120.03 52.8304 120.357 54.376C120.408 54.6224 120.443 54.8912 120.619 55.0704C120.904 55.3616 121.381 55.2656 121.787 55.2336C123.067 55.1344 124.357 56.0336 124.702 57.2688L107.07 57.2048C106.923 56.6064 107.189 56.072 107.681 55.7008Z" fill="#FEFEFE"/>
<path d="M146.366 40.5807C146.366 33.7103 140.667 28.1743 133.739 28.4367C127.384 28.6767 122.229 33.8991 122.066 40.2575C122.002 42.7023 122.661 44.9871 123.845 46.9199C123.989 47.1567 124.146 47.3871 124.306 47.6111H124.302L124.325 47.6399C124.629 48.0655 124.962 48.4719 125.317 48.8527L132.834 58.0431C133.547 58.9135 134.878 58.9135 135.592 58.0431L143.099 48.8687C143.458 48.4847 143.794 48.0751 144.101 47.6431L144.126 47.6111H144.123C145.534 45.6239 146.366 43.2015 146.366 40.5807ZM134.789 46.9263C130.526 47.2623 126.994 43.7327 127.333 39.4703C127.598 36.1167 130.315 33.3999 133.669 33.1343C137.931 32.7983 141.464 36.3279 141.125 40.5903C140.859 43.9471 138.142 46.6639 134.789 46.9263Z" fill="#FEFEFE"/>
<path d="M157.304 152.539C157.304 153.624 127.378 154.501 90.4624 154.501C53.5472 154.501 23.624 153.624 23.624 152.539C23.624 151.454 53.5504 150.578 90.4656 150.578C127.381 150.578 157.304 151.454 157.304 152.539Z" fill="#FEFEFE"/>
<path d="M24.9043 115.797C29.4899 115.797 34.0755 115.797 38.6643 115.797" stroke="black" stroke-width="0.75" stroke-miterlimit="10" stroke-linecap="round" stroke-linejoin="round"/>
<path d="M21.5825 117.583C26.1681 117.583 30.7537 117.583 35.3425 117.583" stroke="black" stroke-width="0.75" stroke-miterlimit="10" stroke-linecap="round" stroke-linejoin="round"/>
<path d="M67.0195 68.437C70.1779 68.437 73.3331 68.437 76.4915 68.437" stroke="black" stroke-width="0.75" stroke-miterlimit="10" stroke-linecap="round" stroke-linejoin="round"/>
<path d="M64.7314 69.5952C67.8898 69.5952 71.045 69.5952 74.2034 69.5952" stroke="black" stroke-width="0.75" stroke-miterlimit="10" stroke-linecap="round" stroke-linejoin="round"/>
<path d="M33.1474 61.9248C33.1474 61.9248 28.565 67.6048 26.0562 68.1712C26.0562 68.1712 28.4658 68.7024 32.3698 68.1712C36.2738 67.64 36.0754 67.24 36.0754 67.24L33.1474 61.9248Z" fill="#E23744"/>
<path d="M40.6259 78.405C39.2915 73.7202 37.4515 69.1794 35.1347 64.8914C34.4659 63.653 33.7555 62.4402 33.0099 61.2466C32.8467 60.9842 32.4307 61.2274 32.5939 61.4898C35.9027 66.7858 38.4531 72.5266 40.1619 78.533C40.2483 78.8306 40.7123 78.7058 40.6259 78.405Z" fill="#263238"/>
<path d="M64.2385 105.602H36.8081C35.4225 105.602 34.2993 104.479 34.2993 103.093V80.7027C34.2993 79.3171 35.4225 78.1938 36.8081 78.1938H64.2385C65.6241 78.1938 66.7473 79.3171 66.7473 80.7027V103.093C66.7473 104.479 65.6241 105.602 64.2385 105.602Z" fill="#E23744"/>
<g opacity="0.3">
<path d="M34.5072 80.9395C42.8464 80.9395 51.1888 80.9395 59.528 80.9395C61.864 80.9395 64.2032 80.9395 66.5392 80.9395C66.8496 80.9395 66.8496 80.4595 66.5392 80.4595C58.2 80.4595 49.8576 80.4595 41.5184 80.4595C39.1824 80.4595 36.8432 80.4595 34.5072 80.4595C34.1968 80.4595 34.1968 80.9395 34.5072 80.9395Z" fill="black"/>
</g>
<path d="M67.6079 105.602H38.5359C37.8415 105.602 37.2783 106.165 37.2783 106.859C37.2783 107.55 37.8351 108.11 38.5231 108.117C41.4031 108.142 48.2831 108.19 48.4559 108.104C48.6735 107.995 52.6127 113.81 53.2719 113.547L54.8783 118.923L71.4191 112.827L67.6079 105.602Z" fill="#263238"/>
<path opacity="0.3" d="M67.6079 105.602H38.5359C37.8415 105.602 37.2783 106.165 37.2783 106.859C37.2783 107.55 37.8351 108.11 38.5231 108.117C41.4031 108.142 48.2831 108.19 48.4559 108.104C48.6735 107.995 52.6127 113.81 53.2719 113.547L54.8783 118.923L71.4191 112.827L67.6079 105.602Z" fill="black"/>
<path d="M67.3871 107.73C67.3039 107.48 65.2207 100.815 70.9711 101.147C76.7215 101.48 97.3839 109.192 97.6367 110.875C97.8863 112.562 92.5551 115.144 92.5551 115.144C92.5551 115.144 88.3887 122.559 91.3871 126.475C94.3855 130.392 97.9695 131.058 102.219 131.141C106.469 131.224 114.136 130.559 113.8 122.059C113.467 113.56 113.55 107.311 111.8 103.227C110.05 99.1442 110.466 94.229 110.466 93.9794C110.466 93.7298 115.298 91.8994 115.298 91.8994L128.629 111.525L122.878 126.728C122.878 126.728 114.546 136.811 114.296 136.978C114.046 137.144 95.5471 141.061 95.2975 141.061C95.0479 141.061 78.9647 139.56 78.8815 139.227C78.7983 138.895 75.5471 131.896 75.5471 131.896L67.3871 107.73Z" fill="#263238"/>
<path d="M140.005 110.171C140.005 110.171 141.941 111.167 143.33 113.835C144.718 116.504 143.842 118.514 143.842 118.514L140.005 110.171Z" fill="#E23744"/>
<path opacity="0.5" d="M140.005 110.171C140.005 110.171 141.941 111.167 143.33 113.835C144.718 116.504 143.842 118.514 143.842 118.514L140.005 110.171Z" fill="white"/>
<path d="M79.0638 141.845V142.894H76.875V144.293C76.875 144.293 89.7422 144.904 90.267 144.293C90.7918 143.682 91.931 140.942 91.931 140.942L79.0638 141.845Z" fill="#263238"/>
<path d="M57.3071 152.539C66.3062 152.539 73.6015 145.261 73.6015 136.283C73.6015 127.305 66.3062 120.027 57.3071 120.027C48.3079 120.027 41.0127 127.305 41.0127 136.283C41.0127 145.261 48.3079 152.539 57.3071 152.539Z" fill="#263238"/>
<path opacity="0.4" d="M57.3073 146.251C62.8248 146.251 67.2977 141.789 67.2977 136.283C67.2977 130.778 62.8248 126.315 57.3073 126.315C51.7898 126.315 47.3169 130.778 47.3169 136.283C47.3169 141.789 51.7898 146.251 57.3073 146.251Z" fill="white"/>
<g opacity="0.3">
<path d="M58.1039 128.114V133.224C58.1039 133.663 57.7455 134.021 57.3071 134.021H57.3007C56.8591 134.021 56.5039 133.666 56.5039 133.224V128.114C56.5039 127.675 56.8623 127.317 57.3007 127.317H57.3071C57.7487 127.317 58.1039 127.672 58.1039 128.114Z" fill="white"/>
</g>
<g opacity="0.3">
<path d="M58.1039 139.343V144.453C58.1039 144.892 57.7455 145.25 57.3071 145.25H57.3007C56.8591 145.25 56.5039 144.895 56.5039 144.453V139.343C56.5039 138.904 56.8623 138.546 57.3007 138.546H57.3071C57.7487 138.546 58.1039 138.904 58.1039 139.343Z" fill="white"/>
</g>
<g opacity="0.3">
<path d="M60.3533 135.445C59.9725 135.659 59.4893 135.525 59.2717 135.147C59.0509 134.766 59.1789 134.28 59.5597 134.059L63.9949 131.493C63.9949 131.493 63.9949 131.493 63.9981 131.493C64.3789 131.275 64.8685 131.406 65.0861 131.787C65.0861 131.787 65.0861 131.787 65.0861 131.79C65.3069 132.171 65.1725 132.658 64.7917 132.878L60.3597 135.445C60.3597 135.442 60.3565 135.445 60.3533 135.445Z" fill="white"/>
</g>
<g opacity="0.3">
<path d="M49.5217 140.744C49.3009 140.36 49.4321 139.874 49.8161 139.656L54.2481 137.09C54.6289 136.869 55.1217 136.997 55.3457 137.378C55.5665 137.762 55.4353 138.251 55.0513 138.472L50.6193 141.038C50.2321 141.256 49.7425 141.128 49.5217 140.744Z" fill="white"/>
</g>
<g opacity="0.3">
<path d="M65.0865 140.767C64.8657 141.147 64.3793 141.279 63.9953 141.058L59.5601 138.491C59.1793 138.267 59.0481 137.778 59.2721 137.397C59.4929 137.016 59.9825 136.888 60.3633 137.109L64.7953 139.675C64.7953 139.675 64.7953 139.675 64.7985 139.675C65.1793 139.896 65.3105 140.383 65.0865 140.767Z" fill="white"/>
</g>
<g opacity="0.3">
<path d="M55.336 135.154C55.112 135.535 54.6256 135.66 54.2448 135.439L49.8128 132.872C49.8128 132.872 49.8128 132.872 49.8096 132.872C49.4288 132.652 49.2976 132.165 49.5184 131.784C49.7392 131.4 50.232 131.269 50.616 131.493L55.048 134.06C55.048 134.06 55.048 134.06 55.0512 134.06C55.432 134.28 55.5632 134.767 55.3424 135.148C55.3392 135.151 55.3392 135.154 55.336 135.154Z" fill="white"/>
</g>
<path d="M57.3069 134.942C58.0493 134.942 58.6509 135.544 58.6509 136.283C58.6509 137.022 58.0493 137.624 57.3069 137.624C56.5645 137.624 55.9629 137.022 55.9629 136.283C55.9629 135.541 56.5645 134.942 57.3069 134.942Z" fill="#263238"/>
<path d="M135.653 152.539C144.652 152.539 151.947 145.261 151.947 136.283C151.947 127.305 144.652 120.027 135.653 120.027C126.654 120.027 119.358 127.305 119.358 136.283C119.358 145.261 126.654 152.539 135.653 152.539Z" fill="#263238"/>
<path opacity="0.4" d="M135.653 146.251C141.17 146.251 145.643 141.789 145.643 136.283C145.643 130.778 141.17 126.315 135.653 126.315C130.135 126.315 125.662 130.778 125.662 136.283C125.662 141.789 130.135 146.251 135.653 146.251Z" fill="white"/>
<g opacity="0.3">
<path d="M136.45 128.114V133.224C136.45 133.663 136.091 134.021 135.653 134.021H135.646C135.205 134.021 134.85 133.666 134.85 133.224V128.114C134.85 127.675 135.208 127.317 135.646 127.317H135.653C136.094 127.317 136.45 127.672 136.45 128.114Z" fill="white"/>
</g>
<g opacity="0.3">
<path d="M136.45 139.343V144.453C136.45 144.892 136.091 145.25 135.653 145.25H135.646C135.205 145.25 134.85 144.895 134.85 144.453V139.343C134.85 138.904 135.208 138.546 135.646 138.546H135.653C136.094 138.546 136.45 138.904 136.45 139.343Z" fill="white"/>
</g>
<g opacity="0.3">
<path d="M138.699 135.445C138.318 135.659 137.835 135.525 137.618 135.147C137.397 134.766 137.525 134.28 137.906 134.059L142.341 131.493C142.341 131.493 142.341 131.493 142.344 131.493C142.725 131.275 143.214 131.406 143.432 131.787C143.432 131.787 143.432 131.787 143.432 131.79C143.653 132.171 143.518 132.658 143.138 132.878L138.706 135.445C138.706 135.442 138.702 135.445 138.699 135.445Z" fill="white"/>
</g>
<g opacity="0.3">
<path d="M127.867 140.744C127.646 140.36 127.778 139.874 128.162 139.656L132.594 137.09C132.974 136.869 133.467 136.997 133.691 137.378C133.912 137.762 133.781 138.251 133.397 138.472L128.965 141.038C128.578 141.256 128.088 141.128 127.867 140.744Z" fill="white"/>
</g>
<g opacity="0.3">
<path d="M143.432 140.767C143.211 141.147 142.725 141.279 142.341 141.058L137.906 138.491C137.525 138.267 137.394 137.778 137.618 137.397C137.838 137.016 138.328 136.888 138.709 137.109L143.141 139.675C143.141 139.675 143.141 139.675 143.144 139.675C143.525 139.896 143.653 140.383 143.432 140.767Z" fill="white"/>
</g>
<g opacity="0.3">
<path d="M133.682 135.154C133.458 135.535 132.971 135.66 132.591 135.439L128.159 132.872C128.159 132.872 128.159 132.872 128.155 132.872C127.775 132.652 127.643 132.165 127.864 131.784C128.085 131.4 128.578 131.269 128.962 131.493L133.394 134.06C133.394 134.06 133.394 134.06 133.397 134.06C133.778 134.28 133.909 134.767 133.688 135.148C133.685 135.151 133.685 135.154 133.682 135.154Z" fill="white"/>
</g>
<path d="M135.653 134.942C136.395 134.942 136.997 135.544 136.997 136.283C136.997 137.022 136.395 137.624 135.653 137.624C134.91 137.624 134.309 137.022 134.309 136.283C134.309 135.541 134.91 134.942 135.653 134.942Z" fill="#263238"/>
<path d="M107.01 88.1935C107.01 88.1935 107.49 86.7535 107.448 86.7535C107.406 86.7535 111.365 83.6367 111.365 83.6367C111.365 83.6367 115.003 85.4767 115.922 86.5135C116.84 87.5535 116.962 91.0703 116.962 91.0703C116.962 91.0703 115.483 92.4687 115.323 92.5487C115.163 92.6287 110.446 95.3871 110.248 95.2271C110.046 95.0671 107.01 88.1935 107.01 88.1935Z" fill="#E23744"/>
<g opacity="0.3">
<path d="M102.216 131.144C97.9664 131.061 94.3825 130.395 91.3841 126.479C88.3857 122.562 92.5521 115.147 92.5521 115.147C92.5521 115.147 83.2401 111.957 83.5185 112.267C83.7969 112.575 80.4528 127.266 87.6976 131.387C93.5824 134.738 104.062 131.787 107.784 130.565C105.845 131.099 103.794 131.173 102.216 131.144Z" fill="black"/>
</g>
<path d="M37.6658 125.089C37.5122 125.32 35.8354 127.358 40.8946 128.056C45.9538 128.753 76.4882 133.726 76.837 133.726C77.1858 133.726 84.165 125.089 81.8098 118.549C79.4546 112.005 69.1602 109.301 63.6658 109.649C58.165 109.998 47.4354 110.433 37.6658 125.089Z" fill="#E23744"/>
<path d="M75.0574 136.44L74.7886 142.753C74.7886 142.753 107.643 142.734 112.123 141.061C116.129 139.566 117.329 137.761 117.87 135.547C119.416 135.547 120.875 134.849 121.838 133.64C124.376 130.465 130.622 124.51 141.384 125.253C141.697 125.275 142.011 125.275 142.325 125.249C143.736 125.131 147.781 124.757 147.557 124.382C147.285 123.928 140.216 114.414 128.526 115.681C128.526 115.681 132.152 114.049 130.702 111.512C129.253 108.974 116.021 92.1167 116.021 92.1167C116.021 92.1167 111.672 95.9215 114.843 100.363C118.014 104.805 121.822 111.509 121.822 114.139C121.822 116.766 120.168 130.785 113.121 136.072C109.857 138.523 75.0574 136.44 75.0574 136.44Z" fill="#E23744"/>
<path opacity="0.3" d="M41.4414 122.638C41.4414 122.638 53.147 109.928 66.971 110.933C80.795 111.937 43.115 125.646 41.4414 122.638Z" fill="white"/>
<path d="M134.085 116.84C134.085 116.84 132.779 113.304 136.098 111.618C139.416 109.931 139.906 109.986 139.906 109.986L144.366 118.472C144.366 118.472 143.579 119.864 140.203 120.027C136.83 120.19 134.309 116.933 134.309 116.933" fill="#E23744"/>
<path d="M103.157 87.7423L108.658 88.2735L109.966 87.1279C109.966 87.1279 111.915 87.2655 112.274 87.6751C112.632 88.0847 112.869 89.2431 112.869 89.2431C112.869 89.2431 113.224 90.2191 112.29 90.5487C112.29 90.5487 112.491 91.2527 111.432 91.6559C111.432 91.6559 111.246 88.8783 110.155 89.1343C109.064 89.3903 109.413 92.6383 108.744 92.5519C107.499 92.3951 107.541 91.5599 107.541 91.5599L102.779 91.2303L103.157 87.7423Z" fill="#FAAC6D"/>
<path d="M109.733 92.6929C110.79 92.6929 111.646 91.8362 111.646 90.7793C111.646 89.7225 110.79 88.8657 109.733 88.8657C108.676 88.8657 107.819 89.7225 107.819 90.7793C107.819 91.8362 108.676 92.6929 109.733 92.6929Z" fill="#263238"/>
<path opacity="0.3" d="M81.8065 118.549C80.8145 115.794 78.4113 113.72 75.5569 112.271C75.6401 112.363 79.0609 116.213 79.5601 118.271C80.0625 120.354 76.4177 127.016 73.6017 129.653C70.7825 132.29 60.6001 131.154 60.4209 131.125C68.8113 132.469 76.6609 133.733 76.8369 133.733C77.1825 133.727 84.1617 125.09 81.8065 118.549Z" fill="black"/>
<path opacity="0.3" d="M128.526 115.688C128.526 115.688 126.027 116.875 125.125 118.005C124.222 119.131 122.67 122.856 122.67 122.856C122.67 122.856 125.058 122.094 125.598 120.037C126.139 117.979 127.154 116.936 127.154 116.936L128.526 115.688Z" fill="black"/>
<path opacity="0.3" d="M133.851 115.688C133.851 115.688 139.259 117.358 142.814 119.745C142.814 119.742 139.105 115.105 133.851 115.688Z" fill="black"/>
<path opacity="0.3" d="M40.9678 125.47C50.9646 127.201 66.8814 129.973 76.8782 131.707" stroke="black" stroke-miterlimit="10" stroke-linecap="round" stroke-linejoin="round"/>
<path d="M92.1519 115.006C91.9535 114.939 71.3967 108.373 70.3599 108.005" stroke="black" stroke-miterlimit="10" stroke-linecap="round" stroke-linejoin="round"/>
<path opacity="0.3" d="M121.851 129.141C126.047 123.723 133.512 121.064 140.187 122.613" stroke="black" stroke-miterlimit="10" stroke-linecap="round" stroke-linejoin="round"/>
<path opacity="0.5" d="M111.986 85.2434C112.162 85.5378 114.542 88.0722 114.542 88.0722L116.664 88.4658C116.664 88.4658 116.475 87.2626 115.922 86.5138C115.368 85.765 112.229 84.1074 112.229 84.1074L111.986 85.2434Z" fill="white"/>
<path opacity="0.3" d="M116.962 96.9072C119.358 102.555 126.216 110.99 126.792 111.509" stroke="black" stroke-miterlimit="10" stroke-linecap="round" stroke-linejoin="round"/>
<path d="M98.139 59.1665C98.539 59.2689 98.8686 59.6081 98.9614 60.0145C99.0542 60.4177 98.9038 60.8689 98.587 61.1345C98.8974 61.1537 99.0734 61.5505 98.9742 61.8481C98.875 62.1457 98.603 62.3441 98.3278 62.4945C98.4782 62.5777 98.5454 62.7697 98.5294 62.9393C98.5134 63.1121 98.427 63.2689 98.3342 63.4129C97.9214 64.0401 97.2878 64.5169 96.571 64.7409C96.571 64.7409 96.619 59.7809 96.7726 59.7169C96.9262 59.6529 98.139 59.1665 98.139 59.1665Z" fill="#263238"/>
<path d="M91.4158 71.3455C91.5694 70.8783 91.8286 70.4143 92.1102 69.9663L91.2942 69.2687L88.6126 65.4639C88.6446 67.5247 88.2094 71.1215 86.3086 72.0143L90.9198 74.3727C90.2446 73.6175 91.1342 72.1679 91.4158 71.3455Z" fill="#FAAC6D"/>
<path opacity="0.2" d="M91.3583 71.525C90.5583 70.8466 89.7391 69.7682 90.0303 68.7442C90.1551 68.3122 90.3215 67.9122 90.4719 67.6626L91.8735 70.357C91.6623 70.7154 91.5663 70.9618 91.3583 71.525Z" fill="black"/>
<path d="M88.6126 61.6817C88.3566 65.0513 88.1774 66.4689 89.5982 68.4977C91.7326 71.5505 95.8446 71.3393 97.083 68.1617C98.1966 65.3041 98.427 60.2705 95.403 58.3281C92.4238 56.4145 88.8686 58.3121 88.6126 61.6817Z" fill="#FAAC6D"/>
<path d="M92.4111 63.4576C92.3695 63.8128 92.5103 64.1327 92.7279 64.1743C92.9455 64.2159 93.1567 63.9632 93.1983 63.608C93.2399 63.2528 93.0991 62.9328 92.8815 62.8912C92.6639 62.8496 92.4527 63.1056 92.4111 63.4576Z" fill="#263238"/>
<path d="M95.8736 64.0434C95.832 64.3858 95.976 64.6994 96.1936 64.7378C96.4112 64.7794 96.6192 64.533 96.6608 64.1906C96.7024 63.8482 96.5584 63.5346 96.3408 63.4962C96.1232 63.4578 95.912 63.701 95.8736 64.0434Z" fill="#263238"/>
<path d="M92.2415 62.1488C92.2831 62.1616 92.3278 62.1552 92.3662 62.1296C92.9582 61.7424 93.5055 62.0048 93.5119 62.008C93.5919 62.0464 93.6879 62.0144 93.7231 61.9312C93.7583 61.848 93.7166 61.7456 93.6366 61.7072C93.6078 61.6944 92.9198 61.3616 92.187 61.8416C92.1134 61.8896 92.0942 61.992 92.1454 62.072C92.1678 62.1104 92.2031 62.136 92.2415 62.1488Z" fill="#263238"/>
<path d="M97.387 62.5491C97.4222 62.5427 97.4542 62.5235 97.4766 62.4883C97.5182 62.4179 97.499 62.3155 97.4286 62.2611C96.7406 61.7075 96.1262 61.9347 96.0974 61.9475C96.0238 61.9763 95.9918 62.0691 96.027 62.1523C96.0622 62.2355 96.1486 62.2835 96.2222 62.2547C96.2478 62.2451 96.7278 62.0755 97.275 62.5171C97.307 62.5459 97.3486 62.5555 97.387 62.5491Z" fill="#263238"/>
<path d="M95.1408 63.7168C95.1408 63.7168 95.4511 65.048 95.9055 65.9216C95.9855 66.0752 95.8896 66.2608 95.72 66.2928C95.2848 66.376 94.8271 66.1584 94.8271 66.1584L95.1408 63.7168Z" fill="#E97F3F"/>
<path d="M92.7534 62.8847L93.547 62.8335C93.547 62.8335 93.035 63.3327 92.7534 62.8847Z" fill="#263238"/>
<path d="M96.2224 63.4897L97.016 63.4385C97.0128 63.4385 96.9072 63.9697 96.2224 63.4897Z" fill="#263238"/>
<path d="M89.1055 64.8657C89.1055 64.8657 90.3087 64.8913 89.9535 63.4353C89.9535 63.4353 91.3839 62.9393 90.8783 61.2145C90.8783 61.2145 92.2735 61.5089 92.8591 60.1073C92.8591 60.1073 93.9823 61.2273 95.2303 60.2961C95.2303 60.2961 97.0735 61.8673 97.8191 60.4817C97.8191 60.4817 100.513 59.8513 98.4431 58.2129C98.4431 58.2129 98.9263 54.6097 95.3679 55.9633C95.3679 55.9633 93.7519 53.3969 91.3167 55.6305C91.3167 55.6305 89.2847 54.6353 88.5167 57.0961C88.5167 57.0961 86.2991 56.8625 86.0431 59.9889C86.0431 59.9889 84.2159 60.9713 85.8479 62.7729C85.8479 62.7729 85.5151 63.6337 86.4847 64.6161C86.4847 64.6161 86.6959 65.8705 87.5343 66.1361C87.5343 66.1361 88.1231 67.8801 88.5807 67.7233C89.0447 67.5665 88.5679 65.6529 89.1055 64.8657Z" fill="#263238"/>
<path d="M87.3357 64.2577C87.6141 65.0033 88.1773 65.5409 88.7373 65.7841C89.5789 66.1521 90.2701 64.8177 90.1197 63.8865C89.9821 63.0481 89.2077 62.3793 88.3245 62.4081C87.4541 62.4337 87.0189 63.4033 87.3357 64.2577Z" fill="#FAAC6D"/>
<path opacity="0.2" d="M89.4574 64.4531C89.4894 64.1363 89.3902 63.8067 89.1886 63.5571C88.987 63.3107 88.683 63.1475 88.3662 63.1123" stroke="black" stroke-width="0.5" stroke-miterlimit="10" stroke-linecap="round" stroke-linejoin="round"/>
<path d="M94.5007 66.693C94.2127 67.0034 93.9503 67.333 93.7071 67.6786L93.5023 67.5826C92.5967 67.1378 92.3215 66.6322 92.2863 66.1874C92.2799 65.9794 92.3183 65.7714 92.4047 65.5794C92.4495 65.4706 92.5103 65.3682 92.5871 65.2754C92.9103 65.8834 93.7647 66.3154 94.2095 66.5554C94.4047 66.6738 94.5007 66.693 94.5007 66.693Z" fill="#263238"/>
<path d="M94.1903 66.5331L93.9503 66.8179C93.1119 66.3955 92.5519 65.9859 92.4111 65.5955C92.4559 65.4867 92.5167 65.3843 92.5935 65.2915C92.9359 65.8195 93.7551 66.3123 94.1903 66.5331Z" fill="white"/>
<path d="M93.5055 67.5856C92.5999 67.1408 92.3248 66.6352 92.2896 66.1904C92.6384 66.36 92.9488 66.5936 93.2112 66.8784C93.3808 67.0768 93.4831 67.3232 93.5055 67.5856Z" fill="#E8675B"/>
<path d="M85.1053 61.8959C85.1245 62.7599 85.2589 63.6239 85.5277 64.4431C85.9373 65.6879 86.7181 67.3839 87.9597 67.5823C91.1341 68.0879 90.8109 65.5503 90.9229 65.0127C91.0349 64.4751 90.9197 60.1007 91.8765 59.8831C92.8333 59.6655 99.7325 60.7631 99.7325 60.7631C99.7325 60.7631 100.341 55.2719 94.5005 54.6479C87.9597 53.9503 84.9805 56.0079 85.1053 61.8959Z" fill="#E23744"/>
<path opacity="0.2" d="M90.6477 65.016C90.7949 65.0288 97.8605 66.6544 98.4877 66.312C99.1149 65.9696 100.021 62.1424 99.4189 59.9504C98.8141 57.7584 91.9725 58.2384 91.7197 58.3472C91.4669 58.4528 90.6477 65.016 90.6477 65.016Z" fill="#E23744"/>
<path d="M85.1404 60.4941L91.1212 61.9533L91.038 62.9549L85.1021 61.5853C85.1021 61.2333 85.1116 60.8717 85.1404 60.4941Z" fill="white"/>
<path d="M85.1118 62.0879L91.0062 63.5439L90.9646 64.5551L85.2334 63.2303C85.1822 62.8911 85.1182 62.4559 85.1118 62.0879Z" fill="white"/>
<path opacity="0.2" d="M86.3115 58.4337C86.3115 58.4337 86.5803 55.7553 89.4635 55.2401C92.3467 54.7249 94.1963 54.7249 93.7355 55.5505C93.2747 56.3761 90.1355 56.3761 89.4219 56.8913C88.7051 57.4033 87.0795 59.4993 86.3115 58.4337Z" fill="white"/>
<path opacity="0.3" d="M97.5661 58.7216C97.5149 59.1344 96.7789 59.384 95.9181 59.2784C95.0605 59.1728 94.4045 58.7536 94.4557 58.3408C94.5069 57.928 95.2429 57.6784 96.1037 57.784C96.9613 57.8864 97.6173 58.3056 97.5661 58.7216Z" fill="white"/>
<path d="M102.984 133.755L106.28 132.674L105.419 123.89L101.374 125.371L102.984 133.755Z" fill="#FAAC6D"/>
<path opacity="0.2" d="M102.478 131.118L101.374 125.371L105.419 123.89L106.049 130.318L102.478 131.118Z" fill="black"/>
<path d="M106.773 131.736L102.699 132.869C102.561 132.907 102.469 133.038 102.478 133.186L102.632 136.469C102.648 136.808 102.971 137.048 103.285 136.952C104.59 136.565 105.525 136.219 107.176 135.758C108.19 135.477 111.285 134.734 112.686 134.347C114.059 133.966 113.893 132.459 113.285 132.488C110.555 132.616 108.401 132.344 107.374 131.8C107.189 131.704 106.974 131.682 106.773 131.736Z" fill="#263238"/>
<path opacity="0.3" d="M106.773 131.736L102.699 132.869C102.561 132.907 102.469 133.038 102.478 133.186L102.632 136.469C102.648 136.808 102.971 137.048 103.285 136.952C104.59 136.565 105.525 136.219 107.176 135.758C108.19 135.477 111.285 134.734 112.686 134.347C114.059 133.966 113.893 132.459 113.285 132.488C110.555 132.616 108.401 132.344 107.374 131.8C107.189 131.704 106.974 131.682 106.773 131.736Z" fill="black"/>
<path d="M73.2751 93.5249C73.2751 93.5249 68.4143 102.571 77.2079 105.973C83.8319 108.536 96.8239 111.688 96.8239 111.688L100.722 132.395L108.248 130.747C108.248 130.747 106.05 116.888 104.69 107.794C104.254 104.879 103.064 104.6 102.456 104.184C100.498 102.856 85.8703 97.4641 85.8703 97.4641L86.2063 96.2321L73.2751 93.5249Z" fill="#E23744"/>
<path opacity="0.3" d="M73.2751 93.5249C73.2751 93.5249 68.4143 102.571 77.2079 105.973C83.8319 108.536 96.8239 111.688 96.8239 111.688L100.722 132.395L108.248 130.747C108.248 130.747 106.05 116.888 104.69 107.794C104.254 104.879 103.064 104.6 102.456 104.184C100.498 102.856 85.8703 97.4641 85.8703 97.4641L86.2063 96.2321L73.2751 93.5249Z" fill="black"/>
<path opacity="0.3" d="M96.824 111.688L98.7312 110.184L97.0288 112.786L96.824 111.688Z" fill="black"/>
<path d="M87.787 69.7202C87.5566 69.7586 83.7966 70.197 81.291 74.0114C78.7854 77.8258 73.1022 90.3634 73.1502 90.9202C73.3486 93.2018 70.3982 94.4914 77.339 95.877C84.283 97.2626 86.2062 96.8466 86.2062 96.8466C86.2062 96.8466 87.6334 96.1458 88.0302 93.9634C88.0782 93.701 91.707 85.5154 92.5134 81.7586C93.3198 78.0018 91.3582 71.525 91.3582 71.525L90.923 72.4722L87.787 69.7202Z" fill="#263238"/>
<path opacity="0.3" d="M90.0875 88.7219C90.0875 88.7219 83.2459 77.7299 82.8619 78.1971C82.6667 78.4371 83.6299 82.1491 85.1723 85.6403C85.2299 85.7747 86.2699 85.3427 86.3115 85.4835C87.4123 88.9811 88.7243 92.0307 88.7243 92.0307C88.9611 91.4579 90.0875 88.7219 90.0875 88.7219Z" fill="black"/>
<path d="M87.2974 69.9185L88.2222 69.0513L91.8766 71.3137L91.2718 73.2401L87.2974 69.9185Z" fill="#263238"/>
<path d="M88.0017 73.1694C87.6017 72.635 84.2129 72.7502 83.3297 75.1406C82.4497 77.531 91.0993 91.3774 93.2593 92.1742C96.2033 93.2622 107.538 91.563 107.621 91.4478L108.709 88.1454L96.1617 87.1246C95.7201 87.1982 89.6273 75.339 88.0017 73.1694Z" fill="#FAAC6D"/>
<path d="M85.5057 85.0224L92.8977 81.4256C92.8977 81.4256 89.5921 71.5568 86.7153 71.9024C83.8385 72.248 82.229 74.7216 82.517 76.4464C82.8049 78.1712 85.5057 85.0224 85.5057 85.0224Z" fill="#263238"/>
<path opacity="0.3" d="M83.6304 73.1505C83.6304 73.1505 86.9392 70.7761 88.824 73.3073C90.7088 75.8385 92.7088 81.3361 92.7088 81.3361" stroke="black" stroke-width="0.75" stroke-miterlimit="10" stroke-linecap="round" stroke-linejoin="round"/>
<path opacity="0.3" d="M85.1025 83.637L92.4113 80.5522" stroke="black" stroke-width="0.75" stroke-miterlimit="10" stroke-linecap="round" stroke-linejoin="round"/>
<path fill-rule="evenodd" clip-rule="evenodd" d="M50.0196 83.6331C48.1292 83.8395 46.5067 84.6455 45.2647 85.9952C43.2476 88.1872 42.7569 91.477 44.0494 94.1435C44.6495 95.3816 45.5439 96.2433 45.6949 96.3838C45.7098 96.3977 45.7242 96.411 45.7393 96.4247C45.7437 96.4287 45.7487 96.4333 45.7543 96.4384L45.7474 96.4452C46.3086 96.9066 46.5462 97.0205 46.8701 97.1757C46.9468 97.2125 47.0284 97.2516 47.1203 97.2982C47.1559 97.3163 47.1925 97.3345 47.2301 97.3529C47.277 97.3758 47.3252 97.3991 47.3743 97.4229C47.9246 97.6886 48.5905 98.0101 48.7386 98.5487C48.7799 98.6988 48.8083 98.8315 48.8345 98.9539C48.9172 99.341 48.9776 99.6237 49.3543 100.022C49.6549 100.34 50.2873 100.964 50.5755 101.246C50.6574 101.327 50.805 101.308 50.8819 101.223C50.9184 101.182 50.9004 101.153 50.8618 101.115L49.9476 100.201C49.8935 100.146 49.8702 100.082 49.9242 100.027C49.9768 99.9745 50.0841 99.9516 50.1376 100.004C50.4192 100.278 50.822 100.683 51.002 100.864C51.0626 100.925 51.1491 100.979 51.2247 100.938C51.2282 100.936 51.2316 100.934 51.2349 100.932C51.2402 100.928 51.2453 100.924 51.2499 100.92C51.321 100.849 51.2437 100.73 51.1713 100.66C50.9036 100.405 50.5427 100.036 50.368 99.8566C50.3117 99.7987 50.3115 99.7073 50.3662 99.6488L50.3696 99.6522C50.3733 99.6458 50.3775 99.6397 50.3823 99.6338C50.3881 99.6291 50.3943 99.6248 50.4006 99.6211L50.3972 99.6177C50.4558 99.563 50.5471 99.5632 50.6051 99.6195C50.7847 99.7943 51.1531 100.155 51.4089 100.423C51.4781 100.495 51.5974 100.573 51.6681 100.501C51.6755 100.494 51.6816 100.485 51.6866 100.476C51.7274 100.401 51.6736 100.314 51.6126 100.254C51.431 100.073 51.0261 99.6707 50.7521 99.3891C50.7001 99.3357 50.723 99.2283 50.7759 99.1758C50.8303 99.1218 50.8949 99.145 50.9491 99.1992L51.8633 100.113C51.9018 100.152 51.9306 100.17 51.9711 100.133C52.0563 100.056 52.0753 99.9089 51.9949 99.827C51.7121 99.5388 51.0887 98.9064 50.7706 98.6058C50.3722 98.2292 50.0895 98.1687 49.7023 98.086C49.58 98.0598 49.4473 98.0315 49.2971 97.9902C48.7586 97.842 48.437 97.1761 48.1713 96.6259C48.1286 96.5373 48.0872 96.4518 48.0467 96.3718C48.0001 96.2799 47.961 96.1983 47.9242 96.1216L47.9241 96.1215C47.769 95.7977 47.655 95.56 47.1937 94.999L47.1902 95.0024C47.0297 94.8275 46.8917 94.6599 46.7778 94.5127L46.7761 94.5107C46.6346 94.3279 46.5193 94.1857 46.4201 94.067L46.4158 94.0607L46.4026 94.0411C45.9994 93.4484 45.7409 92.8694 45.5916 92.2249C44.8845 89.1711 46.7933 86.2939 49.8705 85.7756C50.4052 85.6855 51.4133 85.7258 51.9345 85.8581C53.5343 86.2641 54.8704 87.3881 55.5058 88.8625C56.1277 90.3059 56.0813 91.9882 55.3819 93.3446C55.0799 93.9304 54.7982 94.3034 54.2118 94.894L53.6808 95.4287L52.9255 94.681L52.1702 93.9333L52.4663 93.669C53.0069 93.1863 53.6738 92.3984 53.7325 92.173C53.9416 91.3708 53.062 90.6333 52.2897 90.9634C52.1795 91.0105 51.8066 91.3402 51.3972 91.7527L51.1549 91.9968C50.9004 92.2532 50.4862 92.2545 50.23 91.9998C49.7502 91.5226 49.6393 91.3259 49.6388 90.9506C49.6383 90.6109 49.822 90.3343 50.5324 89.6051C51.2432 88.8754 51.3794 88.667 51.3747 88.3172C51.3666 87.7244 50.7435 87.1931 50.185 87.3025C49.8398 87.3701 49.6338 87.5307 48.8661 88.3301C48.0285 89.2024 47.8013 89.5559 47.6345 90.2467C47.5265 90.6937 47.5674 91.6011 47.7141 92.0139C47.9452 92.6641 48.0668 92.8009 50.9535 95.6575L53.7304 98.4054L54.9153 97.2053C55.567 96.5453 56.2501 95.8176 56.4332 95.5884C57.529 94.2172 58.137 92.3597 58.041 90.6771C57.9653 89.3496 57.6249 88.218 56.9787 87.1452C55.8943 85.3452 54.0772 84.1035 51.9669 83.7203C51.5315 83.6413 50.4061 83.5909 50.0196 83.6331Z" fill="#FEFEFE"/>
</g>
<defs>
<clipPath id="clip0_1632_16151">
<rect width="160" height="129.501" fill="white" transform="translate(9 25)"/>
</clipPath>
</defs>
</svg>
